<svg width="167" height="27" viewBox="0 0 167 27" fill="none" xmlns="http://www.w3.org/2000/svg">
<path d="M127.304 0.0013846C128.439 0.103845 129.555 0.119075 130.636 0.315688C136.26 1.3389 139.669 4.88624 140.479 10.6379C140.831 13.137 140.78 15.6681 140.124 18.1202C138.793 23.1061 135.472 25.9764 130.445 26.7421C127.795 27.145 125.093 27.1076 122.471 26.4029C118.299 25.2813 115.64 22.5343 114.411 18.429C113.524 15.4646 113.503 12.4309 114.196 9.41664C115.393 4.20917 119.26 0.780912 124.552 0.196613C125.477 0.0941525 126.408 0.0623068 127.303 0L127.304 0.0013846ZM132.682 13.4666C132.607 11.8563 132.465 10.2917 131.715 8.86003C130.681 6.8856 128.958 6.09499 126.81 6.2196C124.77 6.3373 123.239 7.35913 122.542 9.28372C121.539 12.0474 121.539 14.8996 122.485 17.6785C123.228 19.8648 125.161 20.9988 127.545 20.8797C129.863 20.7634 131.521 19.5062 132.094 17.2479C132.407 16.017 132.494 14.7293 132.683 13.4666H132.682Z" fill="white"/>
<path d="M166.031 7.8534C163.481 8.00432 161.058 8.14832 158.691 8.28816C157.598 5.49682 156.336 4.65914 153.927 5.06344C153.484 5.13821 153.007 5.30298 152.655 5.5702C151.633 6.34696 151.768 7.67063 152.952 8.25909C153.619 8.59001 154.374 8.75477 155.1 8.95277C156.895 9.44292 158.699 9.8943 160.491 10.3914C161.048 10.5464 161.589 10.7777 162.121 11.0117C164.877 12.2218 166.728 14.1644 166.969 17.3074C167.217 20.5446 165.966 23.1172 163.354 25.0127C161.903 26.065 160.219 26.5967 158.478 26.7711C155.754 27.0439 153.016 27.0757 150.317 26.4485C146.315 25.5181 143.683 22.1937 143.622 17.9319C143.83 17.8848 144.05 17.8059 144.272 17.7906C146.473 17.6508 148.676 17.522 151.004 17.3822C151.171 17.8931 151.323 18.3749 151.487 18.8512C152.357 21.3795 155.278 22.5813 157.627 21.3518C158.491 20.8991 159.125 20.2414 159.122 19.1669C159.121 18.1811 158.63 17.45 157.78 17.0845C156.718 16.6276 155.589 16.3313 154.492 15.9574C152.462 15.2665 150.363 14.7252 148.421 13.8349C145.836 12.6496 144.382 10.5326 144.458 7.57925C144.532 4.67298 146.004 2.64594 148.532 1.32365C150.837 0.117664 153.35 0.0345883 155.847 0.0484342C157.288 0.0567418 158.757 0.250585 160.16 0.588427C163.775 1.45657 165.85 4.04022 166.034 7.8534H166.031Z" fill="white"/>
<path d="M89.9535 26.4485H81.5276C81.0821 25.0819 80.6352 23.7139 80.1773 22.3085H71.2644C70.8286 23.6627 70.3872 25.032 69.9334 26.4388H61.7557C64.9226 17.7186 68.1969 9.20056 71.3969 0.574525H80.2711C83.4586 9.09117 86.6585 17.6438 89.9535 26.4499V26.4485ZM75.8933 8.01396C75.7898 8.0098 75.6864 8.00565 75.5829 8.00288C74.7512 10.7485 73.9181 13.4942 73.0423 16.3852C74.9595 16.5472 76.6422 16.5666 78.4753 16.3921C77.5649 13.4402 76.7291 10.7264 75.8933 8.01396Z" fill="white"/>
<path d="M8.10893 16.8504V26.3848H0.34778C-0.00945115 25.158 -0.14462 3.78678 0.198819 0.617438C0.61122 0.571747 1.05259 0.480363 1.49257 0.478979C5.39039 0.467902 9.28959 0.436056 13.1874 0.494209C14.455 0.513594 15.757 0.634053 16.9776 0.958049C19.4769 1.62127 21.081 3.28555 21.7458 5.82213C22.2327 7.67472 22.2202 9.537 21.6892 11.3633C20.772 14.5216 18.5031 16.1803 15.3777 16.6289C13.7184 16.8671 12.015 16.7951 10.3309 16.8477C9.64682 16.8698 8.96132 16.8518 8.10893 16.8518V16.8504ZM8.18617 11.4214C9.64682 11.7233 11.0247 11.5917 12.3543 11.1916C13.5474 10.833 14.1777 9.86515 14.1763 8.69932C14.1763 7.43103 13.4895 6.45905 12.255 6.10321C10.9061 5.71275 9.54613 5.74321 8.18479 6.02152V11.4214H8.18617Z" fill="white"/>
<path d="M88.1673 6.97152V0.761606C89.4156 0.40438 109.211 0.272843 112.317 0.607916V6.88983H104.428C104.182 8.60396 104.332 10.2239 104.306 11.8315C104.279 13.4667 104.301 15.1032 104.301 16.7385V26.4112H96.3105V6.97152H88.1673Z" fill="white"/>
<path d="M60.7446 20.0405V26.1826C59.5446 26.5758 42.9824 26.7004 40.3218 26.3252V0.575838H48.2677V19.9685C52.4511 20.071 56.4992 19.9574 60.7446 20.0405Z" fill="white"/>
<path d="M34.4972 26.4332H26.5677V0.581372H34.4972V26.4332Z" fill="white"/>
</svg>
