<svg width="1005" height="426" viewBox="0 0 1005 426" fill="none" xmlns="http://www.w3.org/2000/svg">
<path d="M313.418 324.683C306.583 331.029 297.632 334.203 286.566 334.203C275.5 334.203 266.55 331.029 259.715 324.683C252.88 318.173 249.463 309.711 249.463 299.296L249.463 192.38C249.463 181.965 252.88 173.584 259.715 167.237C266.55 160.728 275.5 157.473 286.566 157.473C297.632 157.473 306.583 160.728 313.418 167.237C320.252 173.584 323.67 181.965 323.67 192.38L323.67 225.089L301.213 225.089L301.213 192.624C301.213 188.23 299.829 184.731 297.063 182.127C294.459 179.361 290.96 177.978 286.566 177.978C282.173 177.978 278.592 179.361 275.826 182.127C273.222 184.731 271.92 188.23 271.92 192.624L271.92 299.052C271.92 303.446 273.222 307.026 275.826 309.792C278.592 312.396 282.173 313.698 286.566 313.698C290.96 313.698 294.459 312.396 297.063 309.792C299.829 307.026 301.213 303.446 301.213 299.052L301.213 264.145L323.67 264.145L323.67 299.296C323.67 309.711 320.252 318.173 313.418 324.683ZM394.431 331.273L389.061 286.359L361.965 286.359L356.595 331.273L333.894 331.273L358.06 160.402L393.943 160.402L418.353 331.273L394.431 331.273ZM364.406 267.319L386.62 267.319L378.076 196.041L378.076 182.615L372.95 182.615L372.95 196.041L364.406 267.319ZM453.345 310.769L484.59 310.769L484.59 331.273L430.888 331.273L430.888 160.402L453.345 160.402L453.345 310.769ZM520.33 310.769L551.575 310.769L551.575 331.273L497.873 331.273L497.873 160.402L520.33 160.402L520.33 310.769ZM564.858 331.273L564.858 160.402L587.315 160.402L587.315 331.273L564.858 331.273ZM608.72 331.273L608.72 160.402L638.5 160.402L664.131 270.248L666.084 286.359L670.722 286.359L668.769 270.248L668.769 160.402L691.226 160.402L691.226 331.273L661.69 331.273L635.815 221.428L633.862 205.317L629.224 205.317L631.177 221.428L631.177 331.273L608.72 331.273ZM786.128 213.372L763.671 213.372L763.671 192.624C763.671 188.23 762.288 184.731 759.521 182.127C756.917 179.361 753.419 177.978 749.025 177.978C744.631 177.978 741.051 179.361 738.284 182.127C735.681 184.731 734.379 188.23 734.379 192.624L734.379 299.052C734.379 303.446 735.681 307.026 738.284 309.792C741.051 312.396 744.712 313.698 749.269 313.698C753.663 313.698 757.243 312.396 760.009 309.792C762.776 307.026 764.159 303.446 764.159 299.052L764.159 253.893L749.025 253.893L749.025 234.853L786.128 234.853L786.128 331.273L770.506 331.273V321.509L771.238 319.068L768.553 319.068L768.065 321.509C763.996 329.972 755.86 334.203 743.655 334.203C734.053 334.203 726.323 331.192 720.465 325.171C714.769 319.15 711.921 311.257 711.921 301.493L711.921 192.38C711.921 181.965 715.339 173.584 722.174 167.237C729.008 160.728 737.959 157.473 749.025 157.473C760.091 157.473 769.041 160.728 775.876 167.237C782.711 173.584 786.128 181.965 786.128 192.38L786.128 213.372Z" fill="url(#paint0_linear_953_120)"/>
<path d="M264.432 64.1919L264.432 73.6489L254.862 73.6489L254.862 143L244.505 143L244.505 73.6489L234.935 73.6489L234.935 64.1919L264.432 64.1919ZM294.839 64.1919L305.197 64.1919L305.197 143L294.839 143L294.839 107.649L281.216 107.649L281.216 143L270.859 143L270.859 64.1919L281.216 64.1919L281.216 98.4171L294.839 98.4171L294.839 64.1919ZM340.725 73.6489L325.414 73.6489L325.414 98.4171L339.262 98.4171L339.262 107.649L325.414 107.649L325.414 133.543L340.725 133.543L340.725 143L315.056 143L315.056 64.1919L340.725 64.1919L340.725 73.6489Z" fill="url(#paint1_linear_953_120)"/>
<defs>
<linearGradient id="paint0_linear_953_120" x1="475.359" y1="143.263" x2="675.823" y2="442.955" gradientUnits="userSpaceOnUse">
<stop stop-color="#FFC361"/>
<stop offset="1" stop-color="#FF8614"/>
</linearGradient>
<linearGradient id="paint1_linear_953_120" x1="358.92" y1="161.995" x2="228.312" y2="28.8554" gradientUnits="userSpaceOnUse">
<stop offset="0.0769231" stop-color="#FFD48F"/>
<stop offset="0.346799" stop-color="#FFB845"/>
<stop offset="1"/>
</linearGradient>
</defs>
</svg>
